<?xml version="1.0" encoding="utf-8"?>
<!-- Generator: Adobe Illustrator 26.3.1, SVG Export Plug-In . SVG Version: 6.00 Build 0)  -->
<svg version="1.1" id="Logotyper" xmlns="http://www.w3.org/2000/svg" xmlns:xlink="http://www.w3.org/1999/xlink" x="0px" y="0px"
	 viewBox="0 0 427 141.6" style="enable-background:new 0 0 427 141.6;" xml:space="preserve">
<g>
	<g id="Group_33" transform="translate(-337.004 -221)">
		<g id="Group_27" transform="translate(143.967)">
			<path id="Path_1187" d="M300.5,237.2c0.1,0.1,0.1,0.2-0.1,0.3c-0.2,0.2-1.3,1.7-1.4,1.9c-0.1,0.1-0.1-0.1-0.1-0.2
				c0.4-1.1,0.1-2.2-0.8-3c-0.9-0.7-2.1-0.5-2.8,0.4c0,0,0,0,0,0c-0.7,1-0.7,1.9,0,4.5c0.7,2.7,0.4,3.7-0.6,4.9
				c-1.3,1.3-3.5,1.5-5,0.3c-1.9-1.4-2-1.7-2.3-1.8c-0.2-0.1-0.2-0.3,0-0.6c0.3-0.4,1.5-2,1.7-2.3c0.1-0.2,0.2,0,0,0.3
				c-0.6,1.2-0.3,2.6,0.8,3.4c0.8,0.8,2.2,0.7,3-0.1c0-0.1,0.1-0.1,0.1-0.2c0.6-0.7,0.9-1.4,0.1-4.5c-0.9-3.3-0.3-4.4,1-5.4
				c1.3-1,3.1-1,4.4,0c0.5,0.4,1,0.8,1.4,1.3c0.2,0.2,0.2,0.3,0.3,0.4S300.4,237.1,300.5,237.2z"/>
			<path id="Path_1188" d="M196.9,274.6c0-0.1,0.2-0.1,0.3,0c0.7,0.2,1.4,0.3,2.1,0.4c0.4,0-0.2,0.3-0.4,0.3c-0.5,0.1-1.5,0.4-1.9,2
				c-0.3,0.9,0.2,1.9,1.1,2.2c0.1,0,0.1,0,0.1,0c1.4,0.3,2.2-0.3,4.3-1.9c1.3-1.4,3.2-2,5-1.6c1.7,0.6,2.7,2.4,2.3,4.2
				c-0.2,0.9-0.6,1.8-1.1,2.6c-0.1,0.2-0.2,0.3-0.6,0.2c-0.5-0.1-2.2-0.4-2.5-0.4c-0.6-0.1-0.3-0.3,0-0.3c0.9-0.1,2.8-0.4,3.2-2.3
				c0.3-1-0.3-2-1.3-2.2c-0.1,0-0.1,0-0.2,0c-0.9-0.2-1.8-0.2-4.3,1.9c-2.7,2.2-3.8,2.2-5.3,1.6c-1.5-0.7-2.3-2.3-1.8-3.9
				c0.2-0.8,0.4-1.6,0.8-2.3C196.9,274.8,196.8,274.6,196.9,274.6z"/>
			<path id="Path_1189" d="M278.8,352.5c-0.2,0-0.2-0.2-0.2-0.3c0,0-0.5-1.6-0.5-1.7c0-0.1,0.1-0.2,0.2-0.1c0.7,0.8,1.7,1.1,2.7,0.9
				c1.1-0.3,1.7-1.3,1.5-2.4c-0.4-1.1-1.5-1.7-4-2.8c-2.2-1-2.9-2-3.2-3.3c-0.2-1.9,1-3.7,2.9-4.3c1.9-0.6,2.3-0.5,2.7-0.7
				c0.3-0.2,0.3,0.4,0.4,0.5c0.2,0.5,0.7,2,0.8,2.3c0.1,0.3-0.1,0.4-0.2,0.1c-0.6-1.1-1.9-1.7-3.2-1.4c-1.7,0.5-1.9,1.7-1.7,2.5
				c0.3,0.9,0.4,1.6,3.5,2.9c3,1.3,3.6,2.6,3.6,4c-0.1,1.7-1.3,3.1-3,3.3c-0.5,0.1-1,0.2-1.5,0.2c-0.2,0-0.4,0.1-0.5,0.1
				C279,352.4,278.9,352.5,278.8,352.5z"/>
			<path id="Path_1190" d="M302,240.6c0.4-0.2,0.9-0.4,1.2-0.7c0.2-0.1,0.5,0,0.6,0.2c0.1,0.1,2.8,2.8,3.4,3.4
				c0.7,0.8,3.1,3,3.4,3.3s0.6,0.5,0.3,0.7c-0.3,0.2-1,0.6-1.2,0.7c-0.2,0.1-0.1,0-0.1-0.2c0-0.2-0.2-0.6-0.8-1.3s-1.4-1.5-1.6-1.6
				s-0.2-0.1-0.3,0c-0.2,0.2-2.8,2.9-3.4,3.5c-1.5,1.4-2.9,2.9-4.1,4.5c-0.1,0.6,0.1,0.7,0.1,0.8c0.1,0.1,0.2,0.6,0,0.4
				c-0.2-0.2-1.3-1.4-1.5-1.6c-0.3-0.2-1.3-1.1-1.5-1.3s0-0.2,0.2-0.1c0.4,0.2,0.8,0.2,1.2,0c1.5-1.2,2.9-2.5,4.2-3.9
				c0.4-0.4,3.3-3.4,3.4-3.5c0.1-0.1,0.2-0.2,0-0.4c-0.7-0.8-1.5-1.5-2.3-2.2c-0.2-0.2-0.5-0.3-0.8-0.3
				C302,240.8,301.7,240.8,302,240.6z"/>
			<path id="Path_1191" d="M203.2,262.2c-0.3-0.3-0.9-0.8-1.2-1.1c-0.2-0.1-0.1-0.3,0.1-0.5c0.1-0.1,2-3.6,2.4-4.3
				c0.6-0.9,2.3-3.7,2.5-4.1c0.2-0.4,0.4-0.7,0.6-0.5c0.3,0.3,0.6,0.6,0.9,1c0.2,0.2,0.1,0.1-0.2,0.1s-0.5,0.5-1,1.3
				c-0.4,0.6-0.7,1.2-1,1.8c-0.1,0.2,0,0.3,0.2,0.4c0.2,0.1,3.4,2.1,4.1,2.5c1.7,1.1,3.5,2,5.4,2.7c0.6,0,0.6-0.1,0.7-0.2
				c0.2-0.1,0.5-0.2,0.3,0c-0.4,0.5-0.8,1.1-1.1,1.7c-0.3,0.5-0.9,1.6-1,1.8c-0.1,0.2-0.1-0.1-0.1-0.4c0-0.3,0.2-0.6-0.2-0.9
				c-0.8-0.6-4.4-2.7-4.9-3c-0.5-0.3-4-2.3-4.3-2.4c-0.2-0.1-0.3-0.3-0.5,0c-0.6,1-1.2,2-1.6,3.1c-0.1,0.2-0.1,0.5,0,0.7
				C203.3,262.2,203.3,262.3,203.2,262.2z"/>
			<path id="Path_1192" d="M219.4,241c-0.2-0.5-0.4-0.9-0.7-1.4c-0.1-0.2-0.1-0.2,0.2-0.5c0.1-0.1,3.3-2.4,3.9-2.9
				c0.9-0.7,3.8-2.6,4.1-2.9c0.3-0.3,0.7-0.4,0.9-0.1c0.1,0.3,0.5,1.2,0.5,1.4c0.1,0.3,0,0.1-0.3-0.1c-0.2-0.2-0.5-0.1-1.3,0.4
				c-0.8,0.5-1.9,1.3-2.1,1.4c-0.2,0.1-0.1,0.1-0.1,0.3c0.2,0.4,2.3,3.4,2.9,4.2c1.2,1.7,2.5,3.4,3.9,5c0.2,0.1,0.5,0.1,0.7,0
				c0.2,0,0.4,0,0.1,0.2c-0.3,0.2-1.1,0.7-1.5,1c-0.3,0.2-1.1,0.8-1.4,1.1c-0.3,0.3-0.2,0-0.1-0.2c0.2-0.2,0.3-0.3,0-0.8
				c-0.9-1.6-1.9-3.2-3-4.7c-0.3-0.5-3.1-4.2-3.3-4.4c-0.1-0.1-0.1-0.2-0.4,0s-2.4,1.8-2.7,2.1c-0.2,0.2-0.4,0.3-0.4,0.6
				C219.4,240.8,219.4,241.2,219.4,241z"/>
			<path id="Path_1193" d="M316.1,253.4c2.7,2.7,2.6,7.1-0.1,9.8c-0.1,0.1-0.3,0.3-0.4,0.4c-2.8,2.4-7,2.2-9.6-0.3
				c-2.6-2.8-2.5-7.2,0.3-9.8c2.6-2.7,6.9-2.8,9.7-0.2C316,253.3,316.1,253.3,316.1,253.4z M308,255c-2.4,1.7-2.9,5-1.2,7.4
				c0,0.1,0.1,0.1,0.1,0.1c2.3,1.8,5.7,1.4,7.5-0.9c2.4-1.8,2.8-5.3,1-7.7c-0.1-0.1-0.1-0.2-0.2-0.3
				C313.8,252.6,310.9,252.2,308,255L308,255z"/>
			<path id="Path_1194" d="M320,319.1c-1.2,3.6-5.1,5.5-8.7,4.2c-0.2-0.1-0.5-0.2-0.7-0.3c-3.2-1.5-4.9-5.1-3.8-8.5
				c1.3-3.5,5.2-5.4,8.8-4.1C319.2,311.6,321.2,315.5,320,319.1z M314.9,312.4c-2.5-1.4-5.6-0.5-7,2c-0.1,0.1-0.1,0.2-0.2,0.3
				c-0.6,1.8,0.1,4.5,4.1,6c3.9,1.5,6.8,0,7.5-2.6C319.6,317.3,319.6,314.1,314.9,312.4z"/>
			<path id="Path_1195" d="M315,279.2c-0.6,0-1.2-0.1-1.8-0.2c-0.4-0.1-0.5-0.1-0.6-0.3c-1.2-1.5-1.8-3.4-1.8-5.3
				c-0.3-3.2,1.8-6.2,4.8-7.1c2.8-0.8,5.7,0.2,7.4,2.5c1,1.4,1.5,3,1.6,4.6c0.1,1,0.2,1.6,0.2,1.9c0.1,0.5,0.1,0.7,0.2,0.8
				c0.1,0.1-0.1,0.3-0.3,0.3s-1,0.1-1.4,0.2c-0.3,0.1-0.9,0.2-1,0.3c-0.4,0.1-0.4,0-0.1-0.3c0.7-0.4,1.2-1.1,1.3-1.9
				c0.4-1.8-0.2-3.7-1.4-5.2c-1.7-1.7-4.3-2.1-6.4-1.1c-2.4,0.9-4,3.1-4,5.7c-0.1,2,1.1,3.9,2.9,4.6
				C315.3,279,315.6,279.2,315,279.2z"/>
			<path id="Path_1196" d="M326,280.8c0,0.5,0.2,2.8,0.3,3.3c0.1,0.5-0.1,0.3-0.2,0.1c-0.1-0.3-0.3-0.5-0.7-0.5
				c-1.9,0-3.8,0.2-5.7,0.4c1.6,1.4,3.2,2.7,4.9,3.9c0.4,0.3,0.8,0.6,1.3,0.7c0.1,0,0.1,0.1,0.1-0.1c0.1-0.2,0.3-0.9,0.3,0.1
				c0,0.3,0,1,0,1.2c0,0.2,0.1,0.7,0.1,0.8c0.1,0.6,0,0.5-0.4-0.1c-0.7-0.8-1.6-1.5-2.5-2.1c-0.5-0.3-3.4-2.6-3.4-2.6s-4.2,4-5,4.9
				c-0.6,0.6-1.2,1.3-1.7,2.1c-0.1,0.3-0.3,0.5-0.2,0.2c0-0.2,0.2-1.3,0.2-1.9c0-0.4,0.1-1.8,0.1-2c0-0.3,0.1-0.1,0.3,0
				c1-0.6,1.9-1.4,2.7-2.4c1-1,2.7-2.8,2.8-3c-1.4,0.1-2.8,0.3-4.1,0.5c-0.5,0.1-1,0.2-1.5,0.5c-0.2,0.1-0.3,0.3-0.3,0.5
				c0,0.2-0.2,0.3-0.2,0c0-0.2-0.1-1.4-0.1-1.9s-0.2-1.4-0.2-1.6c0-0.1,0.1-0.3,0.2-0.1c0.1,0.2,0.2,0.3,0.4,0.4
				c0.5,0.2,1.1,0.2,5.8-0.4c1.9-0.1,3.7-0.4,5.5-0.8c0.5-0.1,0.8-0.3,0.9-0.7C325.8,280.5,326,280.1,326,280.8z"/>
			<path id="Path_1197" d="M326.1,296.9c-0.1,0.4-0.5,2.7-0.5,3.2c0,0.5-0.2,0.5-0.3,0.2c0-0.3-0.2-0.5-0.4-0.6
				c-0.7-0.3-1.5-0.5-2.3-0.6c-1.6-0.3-2.7-0.4-2.7-0.4s-0.5,2.1-0.8,3.4c-0.4,1.6-0.7,3.8-0.7,3.8l3.1,0.9c0.8,0.2,2.1,0.8,2.5,0.1
				c0.3-0.5,0.5-0.4,0.2,0.1c-0.1,0.2-0.7,2.4-0.8,2.8c-0.2,0.8-0.3,0.3-0.2,0.1c0-0.2,0.2-0.5-0.5-0.8c-0.7-0.3-3.2-1.1-5.3-1.7
				c-1.8-0.6-3.7-1.1-5.6-1.3c-0.5,0-0.6,0.2-0.7,0.3c-0.2,0.2-0.5,0.3-0.2-0.1c0.4-1,0.7-1.9,0.9-3c0.1-1,0.3-0.3,0.3-0.1
				c0,0.3,0.2,0.6,0.4,0.7c1.6,0.7,3.3,1.2,5,1.6c0,0,0.5-2,0.8-3.5c0.4-1.8,0.7-3.6,0.7-3.6s-1-0.2-1.7-0.3
				c-1.2-0.2-2.4-0.4-3.6-0.4c-0.3,0.1-0.5,0.3-0.6,0.5c-0.1,0.2-0.4,0.5-0.2-0.1c0.2-1,0.4-1.9,0.4-2.9c0-0.8,0.3-0.5,0.3-0.2
				c0,0.2,0.2,0.4,0.4,0.6c1.8,0.5,3.7,0.9,5.6,1.1c2,0.4,4,0.6,6,0.6c0.5-0.2,0.4-0.3,0.5-0.5C326,296.6,326.2,296.3,326.1,296.9z"
				/>
			<path id="Path_1198" d="M313.2,329.4c-0.8,0.8-1.5,1.6-2.2,2.5c-0.3,0.5-0.3,0.1-0.2-0.1c0.2-0.3,0.1-0.4-0.1-0.7
				c-1.2-1.3-2.5-2.5-3.9-3.5c-1.3-1.3-2.9-2.4-4.5-3.3c-0.3,0-0.5,0-1.1,0.5c-0.8,0.7-1.5,1.6-2.1,2.5c-0.2,0.4-0.3,0.9-0.3,1.3
				c0,0.3-0.1,0.3-0.2,0c-0.2-0.6-0.3-1.2-0.4-1.8c0-0.2,0.1-0.4,0.2-0.5c0.3-0.4,3.1-3.5,3.5-3.9c0.5-0.5,0.9-1,1.3-1.6
				c0.3-0.4,0.3-0.1,0.3,0.1c-0.2,0.3-0.2,0.6-0.1,0.9c1.3,1.5,2.7,2.8,4.4,3.9c1.4,1.4,3.1,2.6,4.8,3.6c0.2,0,0.5,0,0.6-0.2
				C313.3,329.1,313.6,329.1,313.2,329.4z"/>
			<path id="Path_1199" d="M296.4,329.3c0.1,0.4,1.5,2.8,3,5.2c1.5,2.5,3.2,5.2,3.4,5.6c0.4,0.8,0.5,1-0.3,0.6
				c-1.1-0.6-5.6-2.8-6.3-3.2c-0.7-0.4-4.4-2.2-4.4-2.2s0.8,5.9,0.9,6.3c0.1,0.3,0.7,5.3,0.7,5.5c0,0.3,0,0.6-0.4,0.2
				c-0.4-0.4-7.5-9.4-7.8-9.8c-0.3-0.3-0.6-0.5-1-0.6c-0.2,0-0.4,0-0.6,0c-0.2,0.1-0.3-0.1-0.1-0.2c0.3-0.1,2.8-1.4,3.1-1.6
				c0.2-0.1,0.4,0,0.1,0.2c-0.3,0.2-0.4,0.3-0.3,0.6c0.2,0.7,5.2,7,5.2,7s-0.9-5.7-1-6.4c-0.2-0.7-0.6-4.1-0.6-4.1s0-0.2,0.2-0.1
				c0.2,0.1,5.2,2.7,5.7,2.9c0.5,0.3,3.7,1.8,3.7,1.8s-2.8-4.5-3.9-6.3c-0.2-0.3-0.4-0.6-0.8-0.7c-0.4-0.1-0.5,0.1-0.7,0.2
				c-0.1,0.1-0.3-0.1,0.1-0.3c0.4-0.3,0.8-0.5,1.2-0.8c0.3-0.2,1-0.9,1.1-1c0.1-0.1,0.3,0,0.2,0.2
				C296.4,328.5,296.2,328.9,296.4,329.3z"/>
			<path id="Path_1200" d="M265.7,346.5c0,0.2,0,3,0.1,3.3c0,0.2-0.1,0.1-0.2-0.2c-0.1-0.3-0.3-0.5-0.6-0.6c-1-0.1-2-0.2-3.1-0.1
				c-0.1,1.2,0,2.4,0.3,3.5c0.3,0.3,0.4,0.3,0.5,0.3c0.1,0,0.5,0.2,0.3,0.2c-0.4,0-2.8,0-3.4,0c-0.4,0-0.2-0.1,0.1-0.2
				c0.3-0.1,0.5-0.3,0.6-0.7c0.1-1.1,0.1-2.1,0.1-3.2c-1.1,0-2.2,0-3.3,0.2c-0.2,0.1-0.4,0.4-0.4,0.7c0,0.2-0.3,0.4-0.2,0.1
				c0.1-1,0.1-2,0-3c-0.1-0.4,0-0.3,0.2-0.1c0.2,0.3,0.1,0.5,0.4,0.6c1.1,0.1,2.2,0.2,3.3,0.1c0,0,0-2.7-0.1-3.1
				c-0.1-0.4-0.3-0.6-0.7-0.7c-0.2,0-0.4-0.2-0.1-0.2c1.1,0.1,2.1,0.1,3.2,0c0.3,0,0.1,0.2-0.1,0.2c-0.3,0.1-0.6,0.3-0.7,0.7
				c-0.1,0.4-0.1,3.1-0.1,3.1s2.5,0,3-0.1c0.3-0.1,0.6-0.3,0.7-0.7C265.6,346.6,265.8,346.3,265.7,346.5z"/>
			<path id="Path_1201" d="M242.9,353c-1.2-0.6-2.4-1-3.6-1.3c-0.4-0.1,0-0.2,0.2-0.2c0.3,0,0.6,0.1,0.9-0.2
				c1.4-2.7,2.5-5.5,3.4-8.4c0.7-1.7-0.2-3.7-2-4.3c-0.1-0.1-0.3-0.1-0.4-0.1c-2.9-1-4,0.5-5.6,3.5c-1.1,2-2.1,4.2-2.9,6.4
				c0,0.2,0.1,0.5,0.3,0.6c0.3,0.2,0.4,0.5,0.2,0.4c-1-0.6-2-1.1-3.2-1.5c-0.2-0.1-0.1-0.2,0.3-0.2c0.3,0.1,0.4,0,0.6-0.2
				c1.5-2.4,2.9-4.8,4.2-7.4c0.8-1.4,2.1-2.4,3.6-2.7c2.4-0.2,4.7,0.8,6.1,2.7c0.9,1.3,1.1,3,0.6,4.5c-0.3,1.2-2.9,6.9-2.9,7.7
				c0,0.2,0.1,0.4,0.3,0.5C243.1,352.9,243.2,353.1,242.9,353z"/>
			<path id="Path_1202" d="M224.9,345.3c0,0-0.5-5.8-0.7-7.8c-0.2-2.3-0.8-6.9-0.8-6.9s-4.6,5-5.2,5.6c-0.6,0.6-1.1,1.2-1.1,1.6
				c0,0.2,0.1,0.5,0.3,0.6c0.1,0.1,0.2,0.5,0,0.4c-0.4-0.5-0.8-0.9-1.3-1.3c-0.4-0.4-0.8-0.7-1.2-1c-0.3-0.2,0.1-0.2,0.2-0.1
				c0.2,0.1,0.4,0.2,0.6,0.1c1.8-1.5,3.4-3.2,5-5c1.2-1.3,4-4.3,4.3-4.7c0.2-0.3,0.2-0.2,0.2,0.1c0,0.4,0.5,6.4,0.6,7.1
				c0.1,0.6,0.4,4.7,0.4,5.2s0.2,2,0.2,2s2.1-3,2.8-4.1c0.9-1.1,1.6-2.3,2.2-3.6c0-0.4-0.2-0.7-0.5-0.9c-0.1-0.1-0.2-0.3,0-0.2
				c0.9,0.8,1.9,1.4,2.9,1.9c0.4,0.2-0.2,0.1-0.3,0c-0.3-0.1-0.6-0.1-0.9,0c-1.3,1.6-2.6,3.2-3.6,5c-0.5,0.8-2.1,3-2.5,3.6
				c-0.4,0.6-1.2,1.9-1.4,2.2C225,345.6,224.9,345.6,224.9,345.3z"/>
			<path id="Path_1203" d="M219,320.9c0.3,0.5,0.7,1.1,1.1,1.6c0.4,0.5,0.8,1,1.3,1.4c0.3,0.2-0.1,0.2-0.3,0
				c-0.2-0.2-0.5-0.3-1.2,0.1c-0.9,0.5-8.4,6.8-8.7,7.2c-0.4,0.4-0.3,0.6-0.2,1c0.1,0.3,0,0.5-0.1,0.3c-0.7-1-1.4-2-2.2-2.8
				c-0.3-0.2,0-0.2,0.2-0.1c0.2,0.1,0.3,0.1,0.5,0c3.3-2.4,6.5-4.9,9.5-7.7c0.1-0.2,0.1-0.5-0.1-0.7
				C218.8,320.9,218.8,320.6,219,320.9z"/>
			<path id="Path_1204" d="M212.4,269.8c-0.6,1.2-1.1,2.4-1.5,3.7c-0.1,0.3-0.2,0-0.2-0.3c0.1-0.4,0.1-0.6-0.5-1.1
				c-3.5-1.6-7-2.9-10.7-4c-0.3,0-0.6,0.1-0.7,0.4c-0.1,0.2-0.4,0.3-0.3,0c0.6-1.2,1.1-2.4,1.5-3.6c0.1-0.4,0.2,0,0.2,0.2
				c-0.1,0.3,0,0.6,0.2,0.8c3.6,1.8,7.3,3.2,11.2,4.3c0.5-0.1,0.4-0.2,0.6-0.4C212.3,269.6,212.7,269.4,212.4,269.8z"/>
			<path id="Path_1205" d="M209.1,318.8l2.8-3.8c0,0-5,0.3-6.1,0.4c-1.1,0.1-4.2,0.2-4.5,0.7c-0.2,0.3,0,0.7,0,0.8
				c0,0.2,0,0.6-0.1,0.3c-0.1-0.2-0.4-1.2-0.8-1.9c-0.3-0.6-0.6-1.4-0.7-1.5c-0.2-0.2,0.1-0.2,0.3,0c0.2,0.2,0.4,0.4,0.7,0.4
				c2.1,0.1,4.2,0.1,6.2-0.1c0.9,0,7.5-0.5,8-0.4c0.3,0,0.6-0.1,0.2,0.4c-0.2,0.3-4.1,5.5-4.4,5.9c-1.5,1.8-2.8,3.8-4,5.7
				c0,0.3,0,0.5,0,0.8c0,0.2,0,0.8-0.1,0.6c-0.6-1.2-1.4-2.4-2.2-3.6c-0.3-0.4,0.1-0.1,0.3,0c0.2,0.1,0.4,0,0.6-0.1
				C206.8,321.9,208,320.4,209.1,318.8z"/>
			<path id="Path_1206" d="M209.5,300.1c0.2,0.5,0.8,2.9,1.1,3.9c0.1,0.4,0.8,2.8,1,3.2c0.1,0.2-0.3-0.1-0.4-0.3
				c0-0.2-0.1-0.3-0.3-0.4c-0.1-0.1-0.3-0.1-0.4-0.1c-2,0.4-3.9,0.9-5.8,1.6c-1.9,0.5-3.7,1.1-5.5,2c-0.2,0.2-0.3,0.5-0.2,0.8
				c0,0.2-0.1,0.9-0.2,0.4c-0.1-0.7-0.3-1.5-0.5-2.2c-0.3-1-1.4-5.1-1.5-5.2c-0.1-0.2-0.1-0.3,0.1-0.4c0.5-0.2,1-0.4,1.5-0.6
				c0.4-0.2,0.2,0.1,0,0.3c-0.2,0.2-0.3,0.3-0.3,0.9c0.2,1.2,0.6,2.4,1,3.6c0,0,1.7-0.4,2.2-0.6s2.4-0.7,2.4-0.7
				c-0.3-1.2-0.6-2.3-1.1-3.4c-0.3-0.4-0.4-0.3-0.7-0.3c-0.2,0-0.5-0.1-0.3-0.2c1-0.2,1.9-0.5,2.9-0.9c0.3-0.2,0,0.2-0.2,0.3
				c-0.3,0.1-0.4,0.4-0.4,0.7c0.1,0.6,0.2,1.2,0.4,1.8c0.1,0.3,0.5,1.5,0.5,1.5s3-0.9,3.6-1.1c0.5-0.2,0.9-0.2,0.8-1.3
				c-0.2-1.2-0.5-2.4-1.1-3.5c-0.2-0.3-0.4-0.6-0.7-0.8c-0.1-0.1-0.5-0.4-0.3-0.4c0.7,0.2,1.4,0.5,2.1,0.8
				C209.4,299.7,209.5,299.9,209.5,300.1z"/>
			<path id="Path_1207" d="M224.5,252.1c-0.4,0.4-3,3.3-3.8,4.1c-0.3,0.3-0.9,1-1,1.2c-0.1,0.2-0.2-0.2-0.1-0.4
				c0.2-0.2,0.2-0.5,0.1-0.7c-1.4-1.6-3-3-4.7-4.3c-1.3-1.3-2.8-2.5-4.3-3.5c-0.3-0.1-0.6,0-0.8,0.1c-0.2,0.1-0.6,0.3-0.3,0
				c0.3-0.3,0.7-0.8,1.4-1.5c0.7-0.8,3.6-3.7,3.7-3.9s0.2-0.2,0.4-0.1c0.4,0.4,0.7,0.7,1.1,1.1c0.4,0.3,0,0.2-0.2,0.2
				c-0.2-0.1-0.3-0.1-0.8,0.2c-0.9,0.8-1.7,1.6-2.5,2.5l3.4,3.2c0,0,2.4-2.2,2.4-2.7c0-0.2,0-0.4-0.1-0.6c-0.1-0.2,0-0.5,0.1-0.3
				c0.6,0.7,1.2,1.3,1.9,1.8c0.3,0.2-0.1,0.2-0.2,0.1c-0.3-0.1-0.3-0.3-0.8-0.1c-0.9,0.8-1.6,1.6-2.4,2.5c0,0,2.4,2.1,2.9,2.4
				c0.6,0.4,1,0.5,1.6,0c0.9-0.8,1.6-1.6,2.3-2.6c0.1-0.3,0.2-0.7,0.2-1.1c0-0.2,0.1-0.5,0.2-0.3s0.5,1.7,0.6,2
				C224.8,251.8,224.7,251.9,224.5,252.1z"/>
			<path id="Path_1208" d="M208.6,293.6c0,0.3,0.1,1.7,0.2,2.3c0.1,0.3-0.2-0.1-0.2-0.3c0-0.2-0.2-0.4-0.4-0.5
				c-1.9-0.1-3.8-0.1-5.7,0.2c-2.1,0.1-4.3,0.4-6.3,0.9c-0.2,0.2-0.3,0.5-0.3,0.9c0,0.2-0.3,0.8-0.3,0.3c0-0.3,0-1.5-0.1-1.9
				c-0.2-1.5-0.3-3-0.2-4.4c0.3-1.6,1.7-2.8,3.3-2.9c1.4,0,2.7,0.8,3.3,2.1c0.2-0.3,0.5-0.6,0.9-0.8c1.9-1.1,3.8-2.4,5.4-3.9
				c0.1-0.3,0.2-0.6,0.1-0.9c0-0.5,0.1-0.9,0.3,0c0.2,1,0.1,2-0.4,2.9c-1.1,1.1-2.4,2.1-3.8,2.9c-0.6,0.4-1.9,1.1-1.9,1.9
				c0,0.4,0,0.8,0.1,1.1c0,0,2-0.2,2.5-0.3c1,0,2-0.2,2.9-0.5c0.2-0.1,0.3-0.4,0.2-0.6c0-0.2,0.3-0.8,0.3,0
				C208.5,292.5,208.6,293.3,208.6,293.6z M200.6,290.3c-1.4-0.9-3.2-0.5-4.2,0.8c-0.3,0.9-0.4,1.8-0.3,2.8l2.8-0.2
				c0.4,0,2.9-0.2,2.9-0.2S202.1,291.3,200.6,290.3L200.6,290.3z"/>
			<path id="Path_1209" d="M257.6,250.2c-1.7-2-2.7-4.6-2.7-7.3c0.1-1.7,0.7-3.3,1.8-4.6l0.7-0.8c1.6-1.6,2.6-3.8,2.6-6.1
				c0.1-1.4-0.1-2.9-0.5-4.3c-0.6,4.6-2.9,8.8-6.6,11.7c-1.6,1.4-4.4,3.8-4.4,6.7c0.2,3.3,1.5,6.4,3.7,8.9c-0.7-1.7-1-3.5-1-5.3
				c0-1.2,0.1-2.5,0.4-3.6l0.1-0.2l0.1,0.2C253.1,247.8,255.1,249.4,257.6,250.2z"/>
			<path id="Path_1210" d="M258.4,237.5c1.4-0.6,6.6-2.8,6.6-6.4c-0.2-2.3-1.2-4.5-2.8-6.1C263.7,229.5,262.2,234.5,258.4,237.5z"/>
			<path id="Path_1211" d="M277.7,230.6c-1.9,1.8-4.2,3.2-6.7,4.1l-0.1-0.1c2.1-2.5,3.4-5.5,3.8-8.7c-4.1,6.4-6.5,7.5-9.4,8.8
				l-1.3,0.6c-3.4,1.6-7.4,3.9-7.4,7.6c-0.3,2.7,0.5,5.3,2.2,7.4c-0.3-1.1-0.5-2.1-0.5-3.2c0-0.7,0.1-1.5,0.3-2.2l0.1-0.3l0,0.3
				c0.8,2.3,2.3,4.3,4.3,5.7c-0.1-0.6-0.1-1.2-0.1-1.7c0-2.7,0.6-7.4,4.8-9.2C275.4,236.2,277.3,232.1,277.7,230.6z"/>
			<path id="Path_1212" d="M271.5,245.5c-0.3-2.6,0.2-5.2,1.5-7.5c-5.4,2.1-8.9,7.2-9,13c0,0.3,0,0.6,0,0.8c0.9-2.5,2.5-4.8,4.5-6.5
				l0.1,0l0.1,0c0,0,0,0,0,0.1c-0.3,2-0.7,4-1.3,5.9C268.1,250.7,271.5,248.4,271.5,245.5z"/>
			<path id="Path_1213" d="M278.6,245c0-1.1-0.2-2.1-0.6-3.1c-0.3,1.2-1,2.3-1.9,3.1l0,0l-0.1-0.1c0.7-1,1-2.3,0.8-3.5
				c0-0.9-0.1-1.7-0.2-2.6c-0.1-0.4-0.1-0.7-0.1-1.1c0-1.5,0.5-3,1.3-4.3c-2.1,1.6-3.6,3.8-4.2,6.3c-0.4,1.6-0.8,3.1-1.1,4.7
				c-0.1,0.6-0.2,1.1-0.4,1.7c-0.6,2-1.4,4-2.3,5.8c1.5-0.9,2.7-2.3,3.4-3.9l0.1-0.2l0,0.2c0.1,0.5,0.1,1,0.1,1.5
				c0,1.4-0.3,2.8-0.8,4.1C273.7,252.8,278.6,248.7,278.6,245z"/>
			<path id="Path_1214" d="M287.2,236.9c-1.6-1.2-3.8-1.6-5.7-1.1l-0.2,0.1l0.2-0.2c1-1.3,2.3-2.3,3.7-3.1c-2.2-0.4-4.5,0.3-5.9,2
				c-0.9,1.6-1.3,3.5-1.3,5.3c0,0.4,0,0.7,0,0.9c1.7-2.9,1.9-2.9,1.9-2.9l0.1,0v0.1c0.1,0.4,0.1,0.7,0.1,1.1c0,1.3-0.2,2.5-0.4,3.8
				C282.6,237.2,286.2,236.9,287.2,236.9z"/>
			<path id="Path_1215" d="M262.9,337.2l0.3-13.6c0.2,0.3,0.4,0.6,0.6,0.9c0.2,0.5,0.4,1.1,0.6,1.6c0.3,0.3,0.5,0.7,0.6,1.1
				c0.1,0.7,0.4,2.9,0.5,3.4c0.1,0.5,0.1,0.9,0.4,0.9c1.8,0,2.8-3,2.5-4c-0.4-0.8-0.8-1.5-1.4-2.1c0,0-1-3.1-1.1-3.5
				c-0.2-0.4-0.9-0.7-1.1-0.9c-0.1-0.1-0.7-0.7-1.4-1.3l0.1-3.8c-0.2,0-0.4,0-0.6,0c-1.6,0-3.2-0.6-4.4-1.8l0.7,22.9L262.9,337.2z
				 M267.5,329.8c-0.8,1.1-0.9,1.1-1.2,1.1s-0.3-1.2-0.1-1.9c0.2-0.6,0.6-1.3,1.2-1.3C267.9,327.8,268.3,328.7,267.5,329.8
				L267.5,329.8z"/>
			<path id="Path_1216" d="M293.1,285.4c1.5,0.5,3,0.7,4.5,0.8c2.6-0.4,5-1.6,6.8-3.5c0.9-0.7,1.9-1.2,2.9-1.7c0,0-1.9,0-4.3-0.2
				c-2.2-0.2-4.4,0.1-6.5,0.8c-1.2,0.4-2.3,1.1-3.2,2c-0.4,0.4-0.8,0.7-1.3,0.9c-0.7,0.2-1.3,0.3-1.3,0.3c0.2-0.6,0.5-1.2,0.9-1.6
				c1.2-0.8,2.4-1.8,3.4-2.9c1.6-2,3-4.1,4.1-6.4c0.2-0.7,1.6-3.9,1.6-3.9c-1.2,0.8-2.4,1.6-3.7,2.3c-2,1.1-3.7,2.6-5,4.5
				c-0.9,1.6-1.3,3.4-1.3,5.3c-0.1,1.7-0.8,3.4-2,4.6c-1.1,1.2-2.3,2.4-3.6,3.4c-0.6,0.5-1.4,0.9-2.1,1.1c-0.5,0.1-1,0.1-1.5,0.1
				c0,0,0.7-0.9,1.2-1.1c1.2-0.4,2.4-1.1,3.3-2.1c1.5-1.8,2.5-3.9,2.9-6.2c0.1-0.7,0.8-2.7,0.8-2.7c-0.9,0.9-1.9,1.7-3,2.4
				c-1.9,1.2-3.5,2.9-4.7,4.8c-0.7,1.1-0.9,2.5-0.6,3.7c0,0.3-0.1,0.5-0.6,0.9c-0.4,0.4-1,0.6-1.5,0.7c-1.2,0.4-2.4,0.7-3.6,0.7
				c-1.5-0.1-2.9-0.4-4.3-0.8c-0.5,0-1.3,0.4-1.6,0.5c-0.3,0-0.6-0.1-0.9-0.1c-0.3,0-1.3,0-1.3,0c0.2-0.5,0.3-1.1,0.3-1.6
				c0-0.2,0.1-0.6,0.5-0.7c0.6-0.3,1.2-0.6,1.7-0.9c0.3-0.2,0.7-0.2,1-0.2c1.4,0,2.7-0.4,3.9-1.1c2-1.3,3.7-3.1,4.9-5.1
				c0.8-0.9,1.8-1.6,2.7-2.4c0,0-1.8,0.5-3.8,1.1c-2.2,0.6-4.2,1.6-6.1,2.9c-0.8,0.7-1.5,1.6-2,2.5c-0.3,0.6-0.6,1.2-1.1,1.7
				c-0.3,0.2-1.3,0.8-1.3,0.6c0.2-0.5,0.4-0.9,0.6-1.3c0.2-0.4,1-1.6,1.5-2.4c0.4-0.6,0.7-1.2,0.9-1.9c0.2-0.7,0.5-1.3,0.9-1.8
				c0.8-1.1,2.1-1.8,3.4-1.9c1.4,0,2.9-0.1,4.3-0.2c1.9-0.3,3.7-1,5.3-2.1c0.6-0.3,3-2.1,3-2.1s-2.4,0.4-3.2,0.5
				c-1.8,0.1-3.7,0.3-5.5,0.6c-1.7,0.5-3.3,1.4-4.7,2.4c-1,0.7-2,1.5-3,2.3c0-0.4,0-0.9,0.1-1.3c0.1-0.6,0.4-1.1,0.9-1.4
				c1.4-0.8,2.8-1.7,4-2.9c1.3-1.4,2.3-3,3.2-4.7c0.2-0.6,1.5-3.2,1.5-3.2c-0.8,0.7-1.8,1.3-2.8,1.8c-2.1,1-3.9,2.4-5.4,4.2
				c-0.8,1-1.3,2.2-1.4,3.5c0,0.6-0.1,1.1-0.3,1.7c-0.3,0.6-0.4,1.2-0.4,1.8c0,0.7-0.2,1.4-0.5,2c-0.1,0.4-0.3,0.9-0.5,1.3
				c-0.2,0.2-0.3,0.5-0.5,0.8c-0.5,0.8-1,1.6-1.6,2.4c0,0-0.5-0.6,0.2-2.1c0.8-1.6,1.3-3.3,1.4-5.1c-0.1-1.5-0.3-2.9-0.8-4.3
				c-0.3-0.8-1.4-3.8-1.4-3.8c-0.1,0.9-0.3,1.9-0.6,2.8c-0.8,2-1.4,4.1-1.6,6.2c0.1,1.7,0.6,3.4,1.5,4.9c0.4,0.5,0.6,1.2,0.5,1.9
				c-0.1,0.6-0.3,1.2-0.7,1.7c-0.3,0.5-0.4,1.1-0.5,1.6c-0.3,1.4-1.2,2.7-2.5,3.5c-0.1,0.1-0.2,0.2-0.4,0.3l0.5-19.2
				c0-4.4,1.1-8.7,3.2-12.6c0.3-0.5,0.5-0.7,0.5-0.7c1.6-2.1,4-3.5,6.6-3.8v-1.6c0,0-12.1,0-14.4,0h0c-2.3,0-13.2,0-13.2,0v1.6
				c2.6,0.3,5,1.6,6.6,3.8c2.1,2.9,3.3,4.6,3.7,13.7l0.7,22c-1,0.6-1.6,1.6-1.8,2.8c-0.3-0.4-0.4-1-0.2-1.4c0.6-1.3,0.8-2.8,0.6-4.2
				c-0.7-2.1-1.7-4.1-3.1-5.8c-0.7-0.8-1.9-2.7-1.9-2.7s0,1.8-0.1,3.2c-0.4,1.9-0.3,3.9,0.2,5.8c0.6,1.6,1.6,2.9,2.9,3.9
				c0.4,0.4,0.7,0.9,0.8,1.4c0.1,0.5,0.1,1-0.1,1.4c0,0.5-0.1,1-0.2,1.5c-0.1,0.5-0.6,0.8-0.6,1.3c-0.1,0.7-0.3,1.4-0.5,2.1
				c-0.1,0.4-0.4,0.5-0.7,1c-0.2,0.3-0.3,0.6-0.2,0.9c-0.7-0.5-1.3-1.2-1.8-1.9c-0.8-2.1-2.6-3.7-4.8-4.1c-1.5-0.2-3-0.3-4.5-0.1
				c-1.3,0-2.6-0.2-3.8-0.5c1.1,0.4,2.1,1,2.8,1.9c1.4,1.5,3,2.7,4.9,3.5c1.2,0.4,2.5,0.3,3.7,0c0.5-0.1,0.9-0.4,1.4-0.2
				c0.4,0.2,0.7,0.5,1,0.9c0,0-0.8,0.5-1.4,0.7c-2,0.7-3.8,2.1-5,3.9c-0.6,1.5-1.1,3.1-1.4,4.8c-0.2,0.9-0.4,1.8-0.7,2.7
				c0,0,1.2-1,2.2-1.7c1.5-0.9,2.9-2.1,4-3.5c1.1-1.7,1.7-3.7,1.9-5.7c0-0.4,0.3-0.8,0.7-0.8c0.4,0.1,0.7,0.5,0.7,0.9
				c0,0.5,0.2,1,0.5,1.4c0.2,0.3,0.7,0.7,1.1,1.3c0.4,0.8,0.7,1.6,1,2.5c0.3,0.6,0.4,0.5,0.8,1.3c0.4,0.8,0.4,1.2,0.7,1.8
				c0.4,0.6,0.5,0.5,0.5,0.5l-0.2-3.7c-0.1-0.1-0.2-0.1-0.3-0.2c-0.1-0.2-0.3-0.4-0.4-0.6c0,0,0.6-0.4,1.1-0.6
				c0.3-0.2,0.7-0.2,0.9,0.1c1.3,1,2.8,1.6,4.4,1.8c2.6-0.5,5.1-1.5,7.4-2.8c0.9-0.4,1.9-0.7,2.9-1c0,0-2.1-0.2-3.2-0.5
				c-1.7-0.4-3.4-0.7-5.2-0.9c-0.5,0-1,0.1-1.4,0.2l0.1-1.1c0,0-0.9,0.8-1.2,1c-0.7,0.5-1.5,0.9-2.3,1.1c-0.5,0.2-1.1,0.4-1.7,0.5
				c0,0-0.1-0.1-0.2,0.4c-0.1,0.5-0.2,0.5-0.8,0.6c-0.4,0.1-0.8,0.2-1.1,0.4c0,0,0.5-1.3,0.6-1.5c0.1-0.2,0.2-0.4,0.9-0.6
				c1.9-0.4,3.6-1.3,5-2.6c1.5-1.5,2.8-3.3,3.6-5.2c0.7-1.1,1.5-2.2,2.5-3.1c0,0-1.6,0.6-4.7,1.7c-0.1,0.1-0.3,0.1-0.4,0.2l0.1-4
				l0,0v-0.3l-0.2,0.1c-0.5,0.2-1.8,0.6-2.3,0.8c-0.5,0.2-0.9,0.8-1.4,1c-0.7,0.3-1.4,0.7-2,1.2l0,0.7l0,0l0.1,4.3
				c-0.8,1-1.3,2.3-1.4,3.5c-0.1,0.8-0.2,1.2-0.4,1.6c-0.2,0.5-0.3,0.9-0.5,1.4c-0.3-0.6-0.7-1.2-1.2-1.8c-0.4-0.4-0.5-1.1-0.3-1.6
				c0.2-0.6,0.4-1.2,0.7-1.8c0.3-0.8,0.7-2.4,1-2.8c0.2-0.5,0.1,0.5,0.7-2.4c0.3-1.8,1.6-3.2,3.3-3.7c0.4-0.2,0.8-0.8,1.4-1
				c0.5-0.2,1.9-0.6,2.3-0.8c1-0.4,1.9-1,2.6-1.8c0.4-0.6,0.9-1.1,1.5-1.4c0.8-0.3,1.5-0.4,2.3-0.4c1.1-0.1,1.4,0.8,1.6,1.1
				c0.2,0.3,0.3,0.7,0.3,1.1c-0.1,1.8,0.7,3.5,2.1,4.6c1.8,1.4,4,2.2,6.3,2.5c1.1,0.3,3.7,1.4,3.7,1.4s-0.5-0.2-2.2-2.9
				c-1.2-2-2.7-3.7-4.6-5c-1.1-0.5-2.3-0.9-3.5-1.2c-0.4-0.1-0.8-0.2-1.1-0.5c-0.3-0.4-0.6-0.7-0.9-1.1c0.2,0,0.3,0,0.5,0
				c1.1,0.5,2.3,0.7,3.5,0.7c1.4,0,2.8-0.3,4.1-1c0.5-0.2,1-0.1,1.4,0.1c0.5,0.3,1,0.7,2.1,1.4c1.5,1,3.4,1.7,5.2,1.8
				c2.3-0.1,4.5-0.6,6.6-1.4c0.9-0.4,1.8-0.6,2.7-0.8c0,0-1.7-0.3-2.7-0.5c-2.1-0.7-4.2-1.2-6.4-1.4c-1.4,0-2.8,0.4-4.1,1.2
				c-0.4,0.4-0.9,0.5-1.4,0.3c-0.5-0.1-0.9-0.5-1.1-0.9c1.4-0.1,2.8-0.6,4-1.5c0.9-0.8,1.8-1.6,2.6-2.6c0.5-0.4,0.8-1,1.8-1.9
				C291.1,285.3,292.2,285.1,293.1,285.4z M298.2,281.8c2.3-0.5,4.6-0.5,6.9-0.3c-0.6,0.1-4.1,1.6-6.5,2.3c-1.7,0.4-3.5,0.7-5.3,0.8
				l0-0.1C294.7,283.3,296.4,282.4,298.2,281.8z M293,276.8c1.5-2.1,3.5-3.7,5.9-4.6c0,0-3,4-3.9,5.3c-1,1.3-3.4,4.9-3.4,4.9
				C291.4,280.4,291.9,278.5,293,276.8L293,276.8z M283.2,285.8c1.3-1.9,3.1-3.4,5.1-4.5c0,0-2.1,3.5-3.3,5.1
				c-1.2,1.6-2.9,3.6-2.9,3.6S281.4,288.6,283.2,285.8L283.2,285.8z M274,284c2-1.1,4.1-2,6.2-2.8c0,0-3.6,3.2-5.4,4.5
				c-1.3,0.9-2.6,1.6-3.9,2.3C271.5,286.4,272.6,285,274,284L274,284z M279.8,276.9c2.1-0.4,4.2-0.6,6.3-0.7c0,0-4.1,1.5-5.8,2
				c-1.5,0.4-3.1,0.8-4.6,1C276.9,278.2,278.3,277.4,279.8,276.9L279.8,276.9z M274.3,273.8c1.7-1.9,3.8-3.4,6.1-4.5
				c0,0-2.7,2.7-4.5,4.9c-1.9,2.2-3.1,3.7-3.1,3.7l0,0.1C272.9,276.4,273.5,275,274.3,273.8L274.3,273.8z M267.9,285.1
				c-0.9-1.4-1.4-3-1.4-4.7c0.1-2.1,0.7-4.2,1.7-6.1c0,0-0.1,3.4,0,5.4C268.3,281.5,268.2,283.3,267.9,285.1L267.9,285.1z
				 M245.3,305.3c-1.4-0.6-2.8-1.4-4.1-2.2c2-0.3,4.1-0.2,6.1,0.3c1.6,0.6,2.8,1.9,3.3,3.5C250.5,306.9,247,305.9,245.3,305.3
				L245.3,305.3z M244.6,318.5c0.2-2.1,0.8-4.1,1.8-6c0.9-1.3,2.3-2.2,3.8-2.6L244.6,318.5z M264.4,310.7c2,0.1,4,0.4,6,0.8
				c-2.3,0.6-4.6,1-7,1.3c-1.5,0.1-3,0.1-4.4-0.1C259,312.7,260.1,311.1,264.4,310.7L264.4,310.7z M259.8,304.8
				c2-1.4,4.3-2.5,6.7-3.2c0,0-4,3.4-5.6,4.9c-1.3,1.2-2.5,2.5-3.7,3.9C257.2,308.2,258.2,306.2,259.8,304.8L259.8,304.8z
				 M255.4,298.8c-0.8-1.4-1.4-2.9-1.9-4.4c-0.5-1.8-1.2-6.1-1.2-6.1c1.2,1.7,2.3,3.6,3.3,5.4C256.1,295.4,256,297.2,255.4,298.8
				L255.4,298.8z M272.8,294.4c1.5,0.3,3,0.9,4.3,1.6c2,1.5,3.6,3.4,4.6,5.7c-1.7-1-3.4-2-5-3.2c-1.5-1.2-2.8-2.5-3.9-4V294.4z
				 M288.3,292c2.2,0.2,4.4,0.6,6.5,1.3c0,0-4.9,0.6-6.5,0.6c-1.4-0.1-2.8-0.2-4.2-0.4C285.4,292.6,286.8,292.1,288.3,292L288.3,292
				z"/>
			<path id="Path_1217" d="M280.8,272.5c-0.7,0.4-1,1.1-1,1.8c-0.1,0.5,0.3,1,0.8,1.1c0.2,0,0.3,0,0.5-0.1c0.7-0.2,1.2-0.9,1.1-1.7
				c0-0.6-0.5-1.2-1.1-1.2C281,272.5,280.9,272.5,280.8,272.5z"/>
			<path id="Path_1218" d="M298.1,277.8c-0.7,0.4-1,1.1-1,1.8c-0.1,0.5,0.3,1,0.8,1.1c0.2,0,0.3,0,0.5-0.1c0.7-0.2,1.2-0.9,1.1-1.7
				c0-0.6-0.5-1.2-1.1-1.2C298.4,277.7,298.2,277.8,298.1,277.8z"/>
			<path id="Path_1219" d="M268.8,294.3c-0.7,0.4-1,1.1-1,1.8c-0.1,0.5,0.3,1,0.8,1.1c0.2,0,0.3,0,0.5-0.1c0.7-0.2,1.2-0.9,1.1-1.7
				c0-0.6-0.5-1.2-1.1-1.2C269,294.2,268.9,294.2,268.8,294.3z"/>
			<path id="Path_1220" d="M289.3,288.7c-0.2,0.5-0.1,1,0.4,1.3c0.2,0.1,0.3,0.1,0.5,0.1c0.8,0,1.4-0.5,1.6-1.2
				c0.2-0.6-0.1-1.3-0.7-1.5c-0.1,0-0.2-0.1-0.3-0.1C290,287.4,289.4,288,289.3,288.7z"/>
			<path id="Path_1221" d="M280.5,294.2c-0.7,0.4-1,1.1-1,1.8c-0.1,0.5,0.3,1,0.8,1.1c0.2,0,0.3,0,0.5-0.1c0.7-0.2,1.2-0.9,1.1-1.7
				c0-0.6-0.5-1.2-1.1-1.2C280.7,294.2,280.6,294.2,280.5,294.2z"/>
			<path id="Path_1222" d="M266.5,306.2c-0.7,0.4-1,1.1-1,1.8c-0.1,0.5,0.3,1,0.8,1.1c0.2,0,0.3,0,0.5-0.1c0.7-0.2,1.2-0.9,1.1-1.7
				c0-0.6-0.5-1.2-1.1-1.2C266.7,306.2,266.6,306.2,266.5,306.2z"/>
			<path id="Path_1223" d="M244.7,311.3c0.7-0.2,1.2-0.9,1.1-1.7c0-0.6-0.5-1.2-1.1-1.2c-0.1,0-0.2,0-0.3,0c-0.7,0.4-1,1.1-1,1.8
				c-0.1,0.5,0.3,1,0.8,1.1C244.4,311.4,244.6,311.4,244.7,311.3z"/>
			<path id="Path_1224" d="M251.3,224.5c1.2,1.6,1.9,3.6,1.9,5.7c0,0.8-0.1,2-0.1,2c-0.1,1.2-0.3,2.4-0.7,3.5
				c1.1-1.5,1.9-3.2,2.5-4.9l0-0.2l0.1,0.2c0.4,0.7,0.6,1.6,0.7,2.4c0.5-1,0.7-2.1,0.7-3.3C256.3,227,254.1,224.7,251.3,224.5z"/>
			<path id="Path_1225" d="M252,233.2L252,233.2c-0.1-0.9-0.2-1.8-0.3-2.6c-1.2,2.5-3,4.6-5.1,6.3c-2,1.4-3.3,3.6-3.4,6.1
				c0.4,3.6,2.2,6.9,5.1,9.1c-0.9-2.4-1.4-4.9-1.4-7.5c0.1-1.3,0.7-2.6,1.8-3.4l0.2-0.2c0.8-0.8,1.5-1.6,2.2-2.5l0,0
				c0.3-0.5,0.6-1.1,0.8-1.7c0.1-0.3,0.1-0.6,0.1-0.9l0,0C252,235,252,234.1,252,233.2z"/>
			<path id="Path_1226" d="M230.4,274.6c-0.7,0-1.2,0.5-1.2,1.2c0,0,0,0,0,0c0,0.3,0.1,0.6,0.3,0.8c-0.1,0-0.3-0.1-0.4-0.1
				c-0.8,0-1.5,0.7-1.5,1.5c0,0.8,0.7,1.5,1.5,1.5c0.1,0,0.3,0,0.4-0.1c-0.3,1.1-1.3,1.8-2.5,1.8c-2.2,0-3.1-2.4-3.2-2.9
				c0.2,0.8,1,1.2,1.8,1c0.8-0.2,1.2-1,1-1.8c-0.2-0.6-0.8-1.1-1.4-1.1c-0.2,0-0.3,0-0.4,0.1c0.6-0.5,0.7-1.5,0.1-2.1
				c-0.5-0.6-1.5-0.7-2.1-0.1c-0.3,0.3-0.5,0.7-0.5,1.1c0,0.4,0.2,0.8,0.5,1.1c-0.2-0.1-0.3-0.1-0.5-0.1c-0.8,0-1.5,0.6-1.5,1.5
				c0,0.8,0.6,1.5,1.5,1.5c0.7,0,1.2-0.4,1.4-1.1c-0.1,0.7-1.3,2.9-3.2,2.9c-1.1,0-2.2-0.7-2.5-1.8c0.1,0,0.3,0.1,0.4,0.1
				c0.8,0,1.5-0.7,1.5-1.5c0-0.8-0.7-1.5-1.5-1.5c-0.1,0-0.3,0-0.4,0.1c0.2-0.2,0.3-0.5,0.3-0.8c0-0.7-0.5-1.2-1.2-1.2c0,0,0,0,0,0
				c-0.3,0-0.5,0-0.7,0.1c0.3,1.2,0.7,3.7,0.7,4l1,6.7h11c0,0,0-0.1,0-0.2l1-6.5c0.2-1.5,0.5-3.1,0.7-4
				C230.9,274.7,230.6,274.6,230.4,274.6z"/>
			<path id="Path_1227" d="M251.2,274.6c-0.7,0-1.2,0.5-1.2,1.2v0c0,0.3,0.1,0.6,0.3,0.8c-0.1,0-0.3-0.1-0.4-0.1
				c-0.8,0-1.5,0.7-1.5,1.5s0.7,1.5,1.5,1.5c0.1,0,0.3,0,0.4-0.1c-0.3,1.1-1.3,1.8-2.5,1.8c-2.2,0-3.1-2.4-3.2-2.9
				c0.2,0.8,1,1.2,1.8,1c0.8-0.2,1.2-1,1-1.8c-0.2-0.6-0.8-1.1-1.4-1.1c-0.2,0-0.3,0-0.4,0.1c0.6-0.5,0.7-1.5,0.1-2.1
				c-0.5-0.6-1.5-0.7-2.1-0.1c-0.3,0.3-0.5,0.7-0.5,1.1c0,0.4,0.2,0.8,0.5,1.1c-0.2-0.1-0.3-0.1-0.5-0.1c-0.8,0-1.5,0.6-1.5,1.5
				c0,0.8,0.6,1.5,1.5,1.5c0.7,0,1.2-0.4,1.4-1.1c-0.1,0.7-1.3,2.9-3.2,2.9c-1.1,0-2.2-0.7-2.5-1.8c0.1,0,0.3,0.1,0.4,0.1
				c0.8,0,1.5-0.7,1.5-1.5s-0.7-1.5-1.5-1.5c-0.1,0-0.3,0-0.4,0.1c0.2-0.2,0.3-0.5,0.3-0.8c0-0.7-0.5-1.2-1.2-1.2c0,0,0,0,0,0
				c-0.3,0-0.5,0-0.7,0.1c0.3,1.2,0.7,3.7,0.7,4l1,6.7h11c0,0,0-0.1,0-0.2l1-6.5c0.2-1.5,0.5-3.2,0.7-4
				C251.7,274.7,251.4,274.6,251.2,274.6z"/>
			<path id="Path_1228" d="M241.6,288c-0.7,0-1.3,0.6-1.3,1.3c0,0,0,0,0,0c0,0.3,0.1,0.6,0.4,0.9c-0.9-0.3-1.8,0.2-2,1.1
				s0.2,1.8,1.1,2c0.2,0,0.3,0.1,0.5,0.1c0.1,0,0.3,0,0.4-0.1c-0.4,1.2-1.5,2-2.7,2c-2.4,0-3.4-2.6-3.5-3.2c0.3,0.9,1.2,1.3,2,1.1
				c0.9-0.3,1.3-1.2,1.1-2c-0.2-0.7-0.8-1.2-1.6-1.2c-0.2,0-0.3,0-0.5,0.1c0.7-0.6,0.7-1.6,0.1-2.3c-0.6-0.7-1.6-0.7-2.3-0.1
				c-0.3,0.3-0.5,0.7-0.5,1.2c0,0.5,0.2,0.9,0.6,1.2c-0.2-0.1-0.3-0.1-0.5-0.1c-0.9,0-1.6,0.7-1.6,1.6c0,0.9,0.7,1.6,1.6,1.6
				c0.7,0,1.4-0.5,1.6-1.2c-0.1,0.7-1.5,3.2-3.5,3.2c-1.3,0-2.4-0.8-2.7-2c0.1,0,0.3,0.1,0.4,0.1c0.9,0,1.7-0.7,1.7-1.6
				c0-0.9-0.7-1.7-1.6-1.7c0,0-0.1,0-0.1,0c-0.2,0-0.3,0-0.5,0.1c0.2-0.2,0.4-0.5,0.4-0.9c0-0.7-0.6-1.3-1.3-1.3c0,0,0,0,0,0
				c-0.3,0-0.6,0-0.8,0.2c0.3,1.3,0.7,4,0.8,4.4l1.1,7.4h12.2c0,0,0-0.1,0-0.2l1.1-7.2c0.2-1.7,0.6-3.5,0.8-4.4
				C242.2,288,241.9,287.9,241.6,288z"/>
		</g>
	</g>
	<g>
		<path d="M176.4,79.3h-3.7c-0.1,4.8-0.1,9.6-0.1,17.7c0,4.3,0.3,6.7,1.7,8.5c1.4,1.7,3.9,2.5,7.4,2.5c3.5,0,6.1-0.8,7.7-2.9
			c1.4-1.9,1.5-4.8,1.5-9.5l0.1-16.2h-4.3v-3.1h11.9v3.1h-3.8L194.8,98c0,3.9-0.4,6.8-2.7,9.6c-2,2.4-5.6,3.7-10.5,3.7
			c-6,0-9.3-1.5-11.3-4.3c-1.6-2.2-1.9-4.6-1.9-10.4c0-5.6,0.1-12,0.1-17.3h-4v-3.1h11.9L176.4,79.3L176.4,79.3z"/>
		<path d="M218.6,107.6h3.3c0-3.9,0.2-8.1,0.2-12.2c0-2.5-0.1-7.4-5.8-7.4c-3.6,0-7.5,2.2-7.5,9.1l-0.1,10.5h3.7v3.1h-11v-3.1h3.3
			l0.2-19.2h-4.1v-3.1h8.1c0,1-0.1,2.4-0.2,3.1l-0.4,2.6h0.1c1.1-3.8,5.2-6.2,9-6.2c7,0,8.7,4.7,8.7,9.6c0,4.3-0.2,9.4-0.2,13.4h3.7
			v3.1h-11L218.6,107.6L218.6,107.6z"/>
		<path d="M237,88.4h-4.6v-3.1h8.7l-0.2,22.3h4v3.1h-12.1v-3.1h4L237,88.4z M238.5,72.4c1.7,0,3.1,1.4,3.1,3.1
			c0,1.7-1.4,3.1-3.1,3.1s-3.1-1.4-3.1-3.1C235.5,73.8,236.9,72.4,238.5,72.4z"/>
		<path d="M245,85.3h10.5v3.1h-3.1l5.9,16.3c0.2,0.7,0.4,1.4,0.5,2.2h0.1c0.2-0.7,0.3-1.5,0.5-2.2l6-16.3h-3.3v-3.1h10.2v3.1h-2.8
			l-8.8,22.3h-4l-8.8-22.3H245L245,85.3L245,85.3z"/>
		<path d="M278.1,98.4c0.2,5.2,2.4,9.6,9.7,9.6c2.8,0,5.5-0.8,7.6-1.9l-0.2,3.5c-1.9,0.9-5.8,1.8-8.4,1.8c-8,0-13-4.4-13-13.3
			c0-7.5,4-13.4,11.8-13.4c10.1,0,11,9.1,11,13.7L278.1,98.4L278.1,98.4z M292.4,95.3c0-4-2.5-7.4-6.8-7.4c-4.3,0-7.3,3.3-7.5,7.4
			H292.4z"/>
		<path d="M304.4,88.4h-4.3v-3.1h8.4v1.4c0,1.5-0.3,4.5-0.5,6.6h0.1h0.1c1-3.7,2.3-8.4,8.6-8.4c0.3,0,2.4,0.2,2.6,0.4l-0.4,3.6
			c-0.7-0.2-1.8-0.4-2.8-0.4c-5.2,0-7.5,5.1-7.6,9.6l-0.2,9.5h4.3v3.1h-11.9v-3.1h3.6L304.4,88.4z"/>
		<path d="M339.6,92.4h-3.6l-0.2-3.6c-0.9-0.8-3.3-0.9-4.5-0.9c-2.6,0-5.9,0.8-5.9,3.9c0,2.8,2.5,3.6,6.2,4.2
			c6.5,1.1,9.2,3.1,9.2,7.2c0,4.5-3.1,8.1-10.4,8.1c-2.8,0-7.1-0.7-8.7-1.5l-0.2-6.5h3.6l0.2,3.8c1.5,0.7,4.1,1.1,5.8,1.1
			c2.7,0,5.9-1.1,5.9-4.2c0-2.5-2.6-3.4-5.4-4c-6.8-1.5-10.2-2.7-10.2-7.6c0-4.1,2.7-7.6,10-7.6c2.1,0,6.1,0.7,8,1.5L339.6,92.4z"/>
		<path d="M348.9,88.4h-4.6v-3.1h8.7l-0.2,22.3h4v3.1h-12.1v-3.1h4L348.9,88.4z M350.5,72.4c1.7,0,3.1,1.4,3.1,3.1
			c0,1.7-1.4,3.1-3.1,3.1s-3.1-1.4-3.1-3.1C347.4,73.8,348.8,72.4,350.5,72.4z"/>
		<path d="M358.6,85.3h4.1l0.2-6.2l4-0.2l-0.2,6.5h8v3.1h-8c-0.1,4.2-0.2,8.5-0.2,12.8c0,3.6,0,6.8,3.9,6.8c2.1,0,3.9-0.6,5-1
			l-0.2,3.2c-1.3,0.6-3.6,1.2-5.7,1.2c-7.1,0-7.1-5.1-7.1-8.3c0-3.1,0.2-10.9,0.2-14.6h-4L358.6,85.3L358.6,85.3z"/>
		<path d="M376.8,85.3h10.7v3.1h-3.2l6.1,15.8c0.3,0.9,0.6,2.1,0.7,2.7h0.1c0.1-0.6,0.4-1.8,0.7-2.7l5.7-15.8H394v-3.1h10.2v3.1
			h-2.8l-7.8,21.4c-3.6,10-6.5,13.8-12.9,13.8c-1.2,0-2.3-0.2-3-0.4v-3.4c0.6,0.2,1.9,0.4,2.9,0.4c2.9,0,5.9-1.8,7.8-6.4l0.8-2.1
			l-9.3-23.5h-3L376.8,85.3L376.8,85.3z"/>
		<path d="M165.6,59h4.1v4.7c1.6,0.9,4.6,1.3,6.8,1.3c4.9,0,8.2-2.3,8.2-6.4c0-9.2-19-3.8-19-16.2c0-4.2,2.5-9.8,12.8-9.8
			c2.5,0,7.1,0.6,9.3,1.6v7h-3.9v-4.3c-1.3-0.5-4.2-0.9-5.8-0.9c-3.7,0-7.9,1.4-7.9,6c0,8.8,19,3.3,19,16.1
			c0,7.6-6.5,10.4-13.2,10.4c-5.7,0-8.5-1.3-10.4-1.7L165.6,59L165.6,59z"/>
		<path d="M192.3,42.2h4.1l0.2-6.2l4.1-0.2l-0.2,6.5h8v3.1h-8.1c-0.1,4.3-0.2,8.6-0.2,12.8c0,3.7,0,6.8,3.9,6.8c2.1,0,4-0.6,5-1
			l-0.2,3.2c-1.3,0.6-3.7,1.2-5.7,1.2c-7.1,0-7.1-5.1-7.1-8.4c0-3.1,0.2-10.9,0.2-14.6h-4.1L192.3,42.2L192.3,42.2z"/>
		<path d="M223.7,41.6c7.8,0,12.4,5.3,12.4,12.7c0,8.1-4.6,14.1-12.4,14.1c-7.8,0-12.4-5.3-12.4-12.7
			C211.3,47.6,215.9,41.6,223.7,41.6z M223.7,65c5.4,0,8.1-4.4,8.1-10c0-5.5-2.7-10-8.1-10c-5.4,0-8.1,4.4-8.1,10
			C215.6,60.5,218.3,65,223.7,65z"/>
		<path d="M260.8,67.1c-2,0.6-4.5,1.2-7.4,1.2c-10.1,0-13.3-6.7-13.3-13.4c0-9.7,7.1-13.4,12.8-13.4c2.8,0,5.6,0.3,8.3,1.3v6.7h-3.7
			v-4c-1.1-0.4-3.1-0.6-4.3-0.6c-7.4,0-8.9,5.8-8.9,10c0,1.4,0.2,10,9.7,10c2.5,0,4.5-0.7,6.9-1.4L260.8,67.1z"/>
		<path d="M268.2,32.8h-5v-3.1h9l-0.1,23.7l9.7-8v-0.1h-3.6v-3.1h11.1v3.1h-2.6L276.2,54l11.5,10.7h2.8v3.1h-11.1v-3.1h3.1v-0.1
			l-10.3-9.8l-0.1,9.9h3.4v3.1h-11.1v-3.1h3.7L268.2,32.8z"/>
		<path d="M297,32.8h-5v-3.1h9l0,13.4c0,1.1-0.3,3.7-0.5,4.8h0.1c1.1-3.9,5.2-6.2,9.1-6.2c7,0,8.8,4.8,8.8,9.6
			c0,4.4-0.2,9.5-0.2,13.4h3.8v3.1h-11.1v-3.1h3.3c0-4,0.2-8.1,0.2-12.2c0-2.5-0.1-7.4-5.8-7.4c-3.6,0-7.6,2.2-7.6,9.1l-0.2,10.5
			h3.8v3.1h-11.5v-3.1h3.7L297,32.8z"/>
		<path d="M337.1,41.6c7.8,0,12.4,5.3,12.4,12.7c0,8.1-4.6,14.1-12.4,14.1s-12.4-5.3-12.4-12.7C324.7,47.6,329.3,41.6,337.1,41.6z
			 M337.1,65c5.4,0,8.1-4.4,8.1-10c0-5.5-2.7-10-8.1-10c-5.4,0-8.1,4.4-8.1,10C329,60.5,331.6,65,337.1,65z"/>
		<path d="M356,32.8h-5v-3.1h9l-0.2,34.9h4.1v3.1h-11.8v-3.1h3.7L356,32.8z"/>
		<path d="M367.6,64.6h3.3l0.2-19.3h-4.1v-3.1h8.2c0,1-0.1,2.4-0.2,3.1l-0.4,2.6h0.1c1.1-3.9,5.2-6.2,9.1-6.2c4.6,0,7.1,2.7,7.7,6
			h0.1c0.5-1.1,2.1-6,8.7-6c7,0,8.8,4.8,8.8,9.6c0,4.4-0.2,9.5-0.2,13.4h3.8v3.1h-11.1v-3.1h3.3c0.1-4.2,0.2-8.3,0.2-12.4
			c0-3.7-0.8-7.3-5.5-7.3c-3.3,0-7.3,2.2-7.3,9.1l-0.1,10.5h3.7v3.1h-11.1v-3.1h3.3c0.1-4.2,0.2-8.3,0.2-12.4c0-3.7-0.8-7.3-5.5-7.3
			c-3.3,0-7.3,2.2-7.3,9.1l-0.1,10.5h3.7v3.1h-11.1L367.6,64.6L367.6,64.6z"/>
	</g>
</g>
</svg>
